<?xml version="1.0" standalone="no"?><!DOCTYPE svg PUBLIC "-//W3C//DTD SVG 1.1//EN" "http://www.w3.org/Graphics/SVG/1.1/DTD/svg11.dtd"><svg t="1611907216077" class="icon" viewBox="0 0 1024 1024" version="1.1" xmlns="http://www.w3.org/2000/svg" p-id="13097" xmlns:xlink="http://www.w3.org/1999/xlink" width="200" height="200"><defs><style type="text/css"></style></defs><path d="M512 64C264.96 64 64 264.96 64 512s200.96 448 448 448 448-200.96 448-448S759.04 64 512 64z" fill="#128CED" p-id="13098"></path><path d="M512 64c247.04 0 448 200.96 448 448S759.04 960 512 960 64 759.04 64 512 264.96 64 512 64m0-64C229.248 0 0 229.248 0 512s229.248 512 512 512 512-229.248 512-512S794.752 0 512 0z" fill="#FFFFFF" p-id="13099"></path><path d="M315.52 278.528v474.88c0 8.064 6.528 14.592 14.592 14.592h274.304c0.256 0 0.384-0.128 0.384-0.384v-488.96c0-8.064-6.528-14.592-14.592-14.592H330.112c-8.064 0-14.592 6.528-14.592 14.464z m112.384 391.424h-51.456c-8.064 0-14.592-6.528-14.592-14.592V603.776c0-8.064 6.528-14.592 14.592-14.592h51.456c8.064 0 14.592 6.528 14.592 14.592V655.36c0 8.064-6.528 14.592-14.592 14.592z m0-134.656h-51.456c-8.064 0-14.592-6.528-14.592-14.592v-51.456c0-8.064 6.528-14.592 14.592-14.592h51.456c8.064 0 14.592 6.528 14.592 14.592v51.456c0 8.064-6.528 14.592-14.592 14.592z m0-134.656h-51.456c-8.064 0-14.592-6.528-14.592-14.592v-51.456c0-8.064 6.528-14.592 14.592-14.592h51.456c8.064 0 14.592 6.528 14.592 14.592v51.456c0 8.064-6.528 14.592-14.592 14.592z m115.968 269.312h-51.456c-8.064 0-14.592-6.528-14.592-14.592v-51.456c0-8.064 6.528-14.592 14.592-14.592h51.456c8.064 0 14.592 6.528 14.592 14.592V655.36c0 8.064-6.4 14.592-14.592 14.592 0.128 0 0 0 0 0z m0-134.656h-51.456c-8.064 0-14.592-6.528-14.592-14.592v-51.456c0-8.064 6.528-14.592 14.592-14.592h51.456c8.064 0 14.592 6.528 14.592 14.592v51.456c0 8.064-6.528 14.592-14.592 14.592z m0-134.656h-51.456c-8.064 0-14.592-6.528-14.592-14.592v-51.456c0-8.064 6.528-14.592 14.592-14.592h51.456c8.064 0 14.592 6.528 14.592 14.592v51.456c0 8.064-6.528 14.592-14.592 14.592z" fill="#FFFFFF" p-id="13100"></path><path d="M603.52 454.4v312.064c0 0.896 0.768 1.536 1.536 1.536h163.84c8.064 0 14.592-6.528 14.592-14.592V468.992c0-8.064-6.528-14.592-14.464-14.592H603.52zM719.36 709.504h-51.584c-8.064 0-14.592-6.528-14.592-14.592v-51.456c0-8.064 6.528-14.592 14.592-14.592H719.36c8.064 0 14.592 6.528 14.592 14.592V695.04c0 7.936-6.528 14.464-14.592 14.464z m0-115.968h-51.584c-8.064 0-14.592-6.528-14.592-14.592v-51.456c0-8.064 6.528-14.592 14.592-14.592H719.36c8.064 0 14.592 6.528 14.592 14.592v51.456c0 8.064-6.528 14.592-14.592 14.592z" fill="#FFFFFF" p-id="13101"></path></svg>